<?xml version="1.0" encoding="utf-8"?>
<!-- Generator: Adobe Illustrator 15.0.0, SVG Export Plug-In . SVG Version: 6.00 Build 0)  -->
<!DOCTYPE svg PUBLIC "-//W3C//DTD SVG 1.1//EN" "http://www.w3.org/Graphics/SVG/1.1/DTD/svg11.dtd">
<svg version="1.1" xmlns="http://www.w3.org/2000/svg" xmlns:xlink="http://www.w3.org/1999/xlink" x="0px" y="0px"
	 width="408.396px" height="158.002px" viewBox="0 0 408.396 158.002" enable-background="new 0 0 408.396 158.002"
	 xml:space="preserve">
<g id="Layer_2" display="none">
	<path display="inline" fill="#999999" d="M400.562,79.001c0,39.249-34.312,72.894-92.156,72.894s-105.844-32.71-105.844-72.894
		H400.562z"/>
	<path display="inline" fill="#999999" d="M122.143,79.386l73.753-0.051c0,25.666,10.333,22.834,5,27.167
		c-5.167,2-8-7.167-36-15.667C142.896,83.169,122.143,87.219,122.143,79.386z"/>
	<path display="inline" opacity="0.77" fill="#999999" d="M0,79.001c0,0,0.031,4.875,0.031,6.281s2.562,6.406,3.156,6.469
		s5.812,0.594,7.75-0.188s3.542-2.062,5.958-2.062s84.01-0.585,85.667-0.585s6.083-1.666,7.167-1.666s25.833-1.335,53.833,9.333
		c13.177,5.021,30.43,12.257,57.407,32.699s58.067,28.72,87.846,28.72c56.25,0,99.582-33.001,99.582-79.001H0z"/>
</g>
<g id="Layer_2_copy">
	<path display="none" opacity="0.77" fill="#999999" d="M400.562,79.001c0,39.249-34.312,72.894-92.156,72.894
		s-105.844-32.71-105.844-72.894h-6.667c0,20.562,9.542,25.312,5,27.501c-5.167,2-9.333-6.584-39.333-16.834
		s-39.375-4.667-39.375-10.667H0c0,0,0.031,4.875,0.031,6.281s2.562,6.406,3.156,6.469s5.812,0.594,7.75-0.188
		s3.542-2.062,5.958-2.062s84.01-0.585,85.667-0.585s6.083-1.666,7.167-1.666s25.833-1.335,53.833,9.333
		c13.177,5.021,30.43,12.257,57.407,32.699s58.067,28.72,87.846,28.72c56.25,0,99.582-33.001,99.582-79.001H400.562z"/>
	<path d="M308.814,0c-29.778,0-60.869,8.277-87.846,28.72s-44.229,27.679-57.407,32.699c-28,10.668-52.75,9.333-53.833,9.333
		s-5.51-1.666-7.167-1.666s-83.25-0.585-85.667-0.585s-4.021-1.281-5.958-2.062s-7.156-0.25-7.75-0.188s-3.156,5.062-3.156,6.469
		S0,79.001,0,79.001s0.031,4.875,0.031,6.281s2.562,6.406,3.156,6.469s5.812,0.594,7.75-0.188s3.542-2.062,5.958-2.062
		s84.01-0.585,85.667-0.585s6.083-1.666,7.167-1.666s25.833-1.335,53.833,9.333c13.177,5.021,30.43,12.257,57.407,32.699
		s58.067,28.72,87.846,28.72c56.25,0,99.582-33.001,99.582-79.001S365.064,0,308.814,0z M200.896,106.502
		c-5.167,2-9.333-6.584-39.333-16.834s-39.375-4.667-39.375-10.667s9.375-0.417,39.375-10.667S195.729,49.5,200.896,51.5
		c4.542,2.188-5,6.938-5,27.501S205.438,104.313,200.896,106.502z M308.406,151.895c-57.844,0-105.844-32.71-105.844-72.894
		s48-72.894,105.844-72.894s92.156,33.645,92.156,72.894S366.25,151.895,308.406,151.895z"/>
</g>
<g id="Layer_3">
</g>
</svg>
